<?xml version="1.0" encoding="utf-8"?>
<!-- Generator: Adobe Illustrator 19.0.0, SVG Export Plug-In . SVG Version: 6.00 Build 0)  -->
<svg version="1.1" xmlns="http://www.w3.org/2000/svg" xmlns:xlink="http://www.w3.org/1999/xlink" x="0px" y="0px"
	 viewBox="0 0 512 512" style="enable-background:new 0 0 512 512;" xml:space="preserve">
<style type="text/css">
	.st0{fill:#212121;}
	.st1{fill:none;stroke:#212121;stroke-width:4;stroke-linecap:round;stroke-linejoin:round;stroke-dasharray:84.6004,84.6004;}
</style>
<g id="Layer_1">
	<path id="XMLID_2_" class="st0" d="M94.1,241.5h4c0.6,0,1.4,0.4,1.6,1.1l18.5,44.6l18.6-44.6c0.2-0.6,0.9-1.1,1.6-1.1h4l-22.2,51.6
		c-0.2,0.5-0.9,1-1.6,1h-0.8c-0.6,0-1.4-0.5-1.6-1L94.1,241.5z"/>
	<path id="XMLID_4_" class="st0" d="M149.8,218.3h3.7c0.6,0,1,0.5,1,1.1v4.9h-3.7c-0.6,0-1-0.4-1-1V218.3z M149.8,241.6h3.6
		c0.6,0,1.2,0.4,1.2,1.1v51.4H151c-0.6,0-1.2-0.5-1.2-1.2V241.6z"/>
	<path id="XMLID_7_" class="st0" d="M173.9,241.6v3.5c0,0,2.1-3.5,9.2-3.5h12v3.3c0,0.6-0.5,1.1-1.2,1.1H181c-7.3,0-7.1,7.6-7.1,7.6
		v40.6h-4.7v-52.5H173.9z"/>
	<path id="XMLID_11_" class="st0" d="M228.2,290.9v3.3h-10.4c-7.2,0-13-5.9-13-13.2v-65.7h3.6c0.6,0,1.2,0.5,1.2,1.2v27.4
		c0.1-1.2,1.5-2,2.9-2h12.8v3.1c0,0.6-0.5,1.2-1.2,1.2h-14.6v35.4c0,4.5,3.7,8.3,8.3,8.3h9.3C227.6,289.7,228.2,290.2,228.2,290.9z"
		/>
	<path id="XMLID_13_" class="st0" d="M237.7,241.5h3.6c0.6,0,1.2,0.5,1.2,1.2v38.7c0,4.6,3.7,8.3,8.3,8.3h15.9
		c4.5,0,8.2-3.7,8.2-8.3v-38.7c0-0.6,0.5-1.2,1.2-1.2h3.6V281c0,7.2-5.8,13.1-12.9,13.1h-15.9c-7.2,0-13-5.9-13-13.1V241.5z"/>
	<path id="XMLID_15_" class="st0" d="M330.8,254.7V293c0,0.6-0.5,1.2-1.2,1.2h-26.4c-7.2,0-13-5.9-13-13.1v-5.5
		c0-7.3,5.8-13.2,13-13.2h21.6c0.6,0,1-0.4,1.2-1.2v-6.8c0-4.6-3.7-8.4-8.3-8.4h-21.9c-0.5,0-1-0.5-1-1.2v-3.3h23
		C325,241.5,330.8,247.5,330.8,254.7z M326,289.5v-23.2c-0.2,0.2-0.5,0.4-0.8,0.4h-21.9c-4.6,0-8.3,3.8-8.3,8.4v6.1
		c0,4.6,3.7,8.3,8.3,8.3H326z"/>
	<path id="XMLID_19_" class="st0" d="M343.2,219.7h3.6c0.6,0,1.2,0.5,1.2,1.2V294h-3.6c-0.6,0-1.2-0.4-1.2-1V219.7z"/>
	<path id="XMLID_21_" class="st0" d="M370.5,219.3v8.6h-8c-0.6,0-1.2-0.5-1.2-1.2v-8.6h8C370,218.1,370.5,218.6,370.5,219.3z
		 M370.5,242.7v51.4h-8c-0.6,0-1.2-0.5-1.2-1.2v-51.3h8C370,241.6,370.5,242,370.5,242.7z"/>
	<path id="XMLID_24_" class="st0" d="M409.8,286.6v7.6h-10.6c-8.4,0-15.3-6.8-15.3-15.3v-62.6h8c0.6,0,1.2,0.5,1.2,1.2v26.2
		c0.5-1.2,1.7-1.9,3-1.9h11.1v7.6c0,0.6-0.5,1-1.2,1h-13v28.9c0,3.5,2.7,6.2,6.2,6.2h9.4C409.3,285.4,409.8,285.9,409.8,286.6z"/>
</g>
<g id="Layer_2">
	<g id="XMLID_394_">
		<circle id="XMLID_29_" class="st1" cx="256" cy="256" r="242.4">
		<animateTransform attributeName="transform"
			attributeType="XML"
			type="rotate"
			from="0 256 256"
			to="360 256 256"
			dur="8s"
			repeatCount="indefinite" />
	</circle>
	</g>
</g>
</svg>
